<?xml version="1.0" standalone="no"?>
<!DOCTYPE svg PUBLIC "-//W3C//DTD SVG 20010904//EN"
 "http://www.w3.org/TR/2001/REC-SVG-20010904/DTD/svg10.dtd">
<svg version="1.0" xmlns="http://www.w3.org/2000/svg"
 width="512.000000pt" height="512.000000pt" viewBox="0 0 512.000000 512.000000"
 preserveAspectRatio="xMidYMid meet">
<metadata>
Created by potrace 1.14, written by Peter Selinger 2001-2017
</metadata>
<g transform="translate(0.000000,512.000000) scale(0.100000,-0.100000)"
fill="#000000" stroke="none">
<path d="M1900 4193 c-22 -8 -70 -55 -70 -69 0 -9 -43 -13 -157 -15 -148 -4
-160 -6 -192 -28 -18 -13 -42 -42 -52 -65 -18 -39 -19 -98 -19 -1467 0 -1569
-3 -1489 61 -1558 18 -18 51 -42 73 -52 39 -18 88 -19 1017 -19 l977 0 53 28
c39 20 62 41 84 77 l30 48 0 1468 c0 1467 0 1468 -21 1495 -47 64 -62 69 -228
73 l-152 3 -17 29 c-16 29 -69 59 -103 59 -31 0 -85 -33 -100 -61 -14 -29 -15
-29 -107 -29 -86 0 -93 2 -102 22 -13 30 -72 68 -104 68 -35 0 -89 -34 -103
-65 -11 -24 -15 -25 -104 -25 -93 0 -94 0 -108 29 -15 28 -69 61 -101 61 -32
0 -86 -33 -101 -61 -14 -29 -15 -29 -107 -29 -86 0 -93 2 -102 22 -21 47 -96
79 -145 61z m65 -73 c4 -6 -9 -10 -32 -10 -28 0 -34 3 -23 10 20 13 47 13 55
0z m415 0 c11 -7 4 -10 -25 -10 -29 0 -36 3 -25 10 8 5 20 10 25 10 6 0 17 -5
25 -10z m420 0 c11 -7 3 -10 -30 -10 -33 0 -41 3 -30 10 8 5 22 10 30 10 8 0
22 -5 30 -10z m415 0 c4 -6 -9 -10 -32 -10 -28 0 -34 3 -23 10 20 13 47 13 55
0z m-1225 -125 c0 -39 -3 -46 -30 -60 -121 -63 -71 -255 66 -255 136 0 184
193 64 255 -27 14 -30 21 -30 60 l0 45 170 0 170 0 0 -50 c0 -36 -4 -50 -14
-50 -22 0 -74 -67 -82 -104 -8 -46 20 -103 66 -134 28 -19 44 -23 84 -19 41 4
55 11 82 40 18 19 36 51 39 70 10 50 -23 120 -64 138 -28 13 -31 18 -31 61 l0
48 170 0 170 0 0 -45 c0 -39 -3 -46 -30 -60 -65 -33 -90 -129 -51 -189 77
-117 251 -68 251 71 0 47 -30 97 -70 118 -27 14 -30 21 -30 60 l0 45 175 0
175 0 0 -45 c0 -38 -4 -47 -22 -54 -66 -25 -98 -123 -64 -190 35 -67 126 -91
191 -51 84 52 84 182 0 231 -32 19 -35 25 -35 65 l0 44 130 0 c139 0 171 -8
189 -47 8 -17 11 -427 11 -1451 l0 -1428 -22 -44 c-45 -86 20 -80 -943 -80
-789 0 -852 1 -884 18 -19 9 -44 30 -55 45 -21 28 -21 31 -26 1490 -3 804 -9
1470 -14 1480 -8 16 2 17 143 17 l151 0 0 -45z m-468 -1430 c-2 -1289 0 -1469
13 -1501 20 -49 19 -51 -9 -25 -13 12 -29 41 -35 64 -9 31 -11 419 -9 1463 3
1382 4 1422 22 1443 11 12 20 21 20 21 1 0 0 -659 -2 -1465z m118 -29 c0
-1414 1 -1442 20 -1485 26 -56 25 -56 -9 -32 -65 46 -61 -45 -61 1527 0 1460
1 1497 36 1449 12 -16 14 -257 14 -1459z m336 1286 c-15 -15 -16 -15 -16 4 0
28 24 52 28 28 2 -9 -3 -24 -12 -32z m114 -3 c0 -34 -31 -69 -60 -69 -20 0
-20 1 5 37 14 21 25 48 25 62 0 20 2 21 15 11 8 -7 15 -25 15 -41z m301 -2
c-18 -18 -23 -1 -9 29 13 28 13 28 16 5 2 -13 -1 -28 -7 -34z m113 -3 c0 -41
-23 -64 -63 -64 l-24 0 22 24 c12 13 27 40 32 61 13 46 33 33 33 -21z m326 47
c0 -5 -9 -19 -20 -32 -19 -23 -19 -23 -20 -3 0 20 17 44 32 44 4 0 8 -4 8 -9z
m93 -25 c12 -36 -18 -80 -58 -84 l-28 -4 21 27 c12 15 24 43 28 61 7 40 24 40
37 0z m317 21 c0 -18 -27 -53 -35 -46 -7 8 15 59 27 59 4 0 8 -6 8 -13z m100
-38 c0 -36 -32 -69 -66 -69 l-26 0 25 30 c14 16 28 43 32 60 6 25 9 29 21 19
8 -6 14 -24 14 -40z"/>
<path d="M2120 2885 l0 -35 556 0 555 0 -3 33 -3 32 -552 3 -553 2 0 -35z"/>
<path d="M2120 2670 l0 -30 555 0 555 0 0 30 0 30 -555 0 -555 0 0 -30z"/>
</g>
</svg>
