<?xml version="1.0" standalone="no"?>
<!DOCTYPE svg PUBLIC "-//W3C//DTD SVG 20010904//EN"
 "http://www.w3.org/TR/2001/REC-SVG-20010904/DTD/svg10.dtd">
<svg version="1.0" xmlns="http://www.w3.org/2000/svg"
 width="512.000000pt" height="512.000000pt" viewBox="0 0 512.000000 512.000000"
 preserveAspectRatio="xMidYMid meet">
<metadata>
Created by potrace 1.14, written by Peter Selinger 2001-2017
</metadata>
<g transform="translate(0.000000,512.000000) scale(0.100000,-0.100000)"
fill="#000000" stroke="none">
<path d="M0 2560 l0 -2560 2560 0 2560 0 0 2560 0 2560 -2560 0 -2560 0 0
-2560z m3694 1451 c149 -83 253 -192 332 -351 32 -64 36 -78 32 -133 -2 -34
-12 -80 -23 -102 -24 -54 -1116 -1152 -1199 -1206 -33 -22 -87 -48 -120 -58
-34 -11 -189 -60 -346 -110 -156 -50 -293 -91 -303 -91 -50 0 -107 58 -107
111 0 31 208 674 237 734 19 39 156 181 601 628 334 334 593 587 615 598 90
47 170 41 281 -20z m-1208 -127 c51 -38 69 -71 69 -129 0 -58 -18 -91 -69
-129 -27 -20 -41 -21 -479 -24 -399 -2 -453 -5 -469 -19 -17 -15 -18 -69 -18
-1024 l0 -1008 22 -15 c20 -14 133 -16 1020 -16 985 0 998 0 1018 20 19 19 20
33 20 458 0 437 0 439 23 482 31 59 76 82 147 77 49 -4 58 -8 92 -47 l39 -43
-3 -486 -3 -486 -27 -57 c-37 -79 -98 -142 -177 -181 l-66 -32 -1065 0 -1065
0 -66 32 c-79 39 -140 102 -177 181 l-27 57 -5 1020 c-3 561 -2 1043 2 1072
13 109 92 224 187 273 94 47 117 49 598 47 439 -2 452 -3 479 -23z"/>
<path d="M3009 3223 c-583 -585 -515 -503 -684 -827 l-78 -149 114 61 c63 33
161 84 218 114 l105 53 534 532 533 532 -16 32 c-24 45 -93 118 -144 151 -25
15 -48 28 -51 28 -3 0 -242 -237 -531 -527z"/>
</g>
</svg>
